<svg width="32" height="32" viewBox="0 0 32 32" fill="none" xmlns="http://www.w3.org/2000/svg">
<path d="M21.7561 5.27857C21.2624 5.77857 20.4499 5.77857 19.9499 5.28482C19.4499 4.79107 19.4499 3.97857 19.9436 3.47857L22.3186 1.08482C23.1249 0.347323 23.8749 0.834822 24.1249 1.07857C24.6249 1.57232 24.6249 2.38482 24.1311 2.88482L21.7561 5.27857Z" fill="#8F8F92"/>
<path d="M25.5617 14.3698C24.7498 14.1292 23.89 14 23 14C22.5569 14 22.1212 14.032 21.6952 14.0939L15.2061 7.57856L14.2186 13.0161C14.1749 13.2723 14.0499 13.5036 13.8686 13.6848L8.52489 19.0598C5.95614 21.6473 4.19989 24.9661 3.48739 28.5348C7.15614 27.8661 10.5686 26.0786 13.2186 23.4098L14.0081 22.6156C14.0027 22.7431 14 22.8712 14 23C14 23.9724 14.1542 24.9088 14.4395 25.7861C11.0493 28.9831 6.71023 31.3036 2.08114 31.3036C1.61239 31.3036 0.574893 31.0286 0.712393 29.7536C1.20614 25.2536 3.38114 20.6098 6.71239 17.2598L11.7811 12.1661L13.1374 4.71606C13.6186 3.28481 14.8561 3.57231 15.2999 4.04731L25.5617 14.3698Z" fill="#8F8F92"/>
<path d="M28.5686 12.0911L30.9436 9.69732C31.4374 9.19732 31.4374 8.38482 30.9374 7.89107C30.6874 7.64732 29.9374 7.15982 29.1311 7.89732L26.7561 10.2911C26.2624 10.7911 26.2624 11.6036 26.7624 12.0973C27.2624 12.5911 28.0749 12.5911 28.5686 12.0911Z" fill="#8F8F92"/>
<path d="M23.3561 8.69107C23.8561 9.18482 24.6686 9.18482 25.1624 8.68482L27.5374 6.29107C28.0311 5.79107 28.0311 4.97857 27.5311 4.48482C27.2811 4.24107 26.5311 3.75357 25.7249 4.49107L23.3499 6.88482C22.8561 7.38482 22.8561 8.19732 23.3561 8.69107Z" fill="#8F8F92"/>
<path fill-rule="evenodd" clip-rule="evenodd" d="M32 23C32 27.9706 27.9706 32 23 32C18.0294 32 14 27.9706 14 23C14 18.0294 18.0294 14 23 14C27.9706 14 32 18.0294 32 23ZM26.7071 19.2929C27.0976 19.6834 27.0976 20.3166 26.7071 20.7071L24.4142 23L26.7071 25.2929C27.0976 25.6834 27.0976 26.3166 26.7071 26.7071C26.3166 27.0976 25.6834 27.0976 25.2929 26.7071L23 24.4142L20.7071 26.7071C20.3166 27.0976 19.6834 27.0976 19.2929 26.7071C18.9024 26.3166 18.9024 25.6834 19.2929 25.2929L21.5858 23L19.2929 20.7071C18.9024 20.3166 18.9024 19.6834 19.2929 19.2929C19.6834 18.9024 20.3166 18.9024 20.7071 19.2929L23 21.5858L25.2929 19.2929C25.6834 18.9024 26.3166 18.9024 26.7071 19.2929Z" fill="#EB5757"/>
</svg>
