<svg width="32" height="32" viewBox="0 0 32 32" fill="none" xmlns="http://www.w3.org/2000/svg">
<path d="M4.71335 13.0438L12.1196 11.6813L16.9884 6.78126C20.4571 3.29376 25.0321 0.693756 29.9321 0.693756C30.4009 0.693756 31.4384 0.968756 31.3009 2.24376C30.8239 6.59109 28.7777 11.0726 25.6359 14.3921C24.8022 14.1372 23.9171 14 23 14C22.8029 14 22.6073 14.0063 22.4133 14.0188L23.4884 12.9375C26.0571 10.35 27.8134 7.03126 28.5259 3.46251C24.8571 4.13126 21.4446 5.91876 18.7946 8.5875L13.6446 13.7688C13.4634 13.9563 13.2259 14.075 12.9696 14.125L7.55085 15.125L14.094 21.6946C14.0321 22.1208 14 22.5567 14 23C14 23.9061 14.1339 24.781 14.383 25.6059L4.0321 15.1938C3.5446 14.7813 3.38835 13.4 4.71335 13.0438Z" fill="#8F8F92"/>
<path d="M1.06973 22.3L3.44473 19.9062C3.93848 19.4062 4.75098 19.4062 5.25099 19.9C5.75099 20.3937 5.75099 21.2062 5.25724 21.7062L2.88223 24.1C2.07598 24.8375 1.32598 24.35 1.07598 24.1062C0.57598 23.6125 0.57598 22.8 1.06973 22.3Z" fill="#8F8F92"/>
<path d="M10.2572 26.7187C10.751 26.2187 11.5635 26.2187 12.0635 26.7125C12.5635 27.2062 12.5635 28.0187 12.0697 28.5187L9.69473 30.9125C8.88848 31.65 8.13848 31.1625 7.88848 30.9187C7.38848 30.425 7.38848 29.6125 7.88223 29.1125L10.2572 26.7187Z" fill="#8F8F92"/>
<path d="M6.85098 23.3125C7.34473 22.8125 8.15723 22.8125 8.65723 23.3062C9.15724 23.8 9.15724 24.6125 8.66348 25.1125L6.28848 27.5062C5.48223 28.2437 4.73223 27.7562 4.48223 27.5125C3.98223 27.0187 3.98223 26.2062 4.47598 25.7062L6.85098 23.3125Z" fill="#8F8F92"/>
<path fill-rule="evenodd" clip-rule="evenodd" d="M23 32C27.9706 32 32 27.9706 32 23C32 18.0294 27.9706 14 23 14C18.0294 14 14 18.0294 14 23C14 27.9706 18.0294 32 23 32ZM27.7682 20.6402C28.1218 20.2159 28.0645 19.5853 27.6402 19.2318C27.2159 18.8782 26.5853 18.9355 26.2318 19.3598L21.9328 24.5186L19.7071 22.2929C19.3166 21.9024 18.6834 21.9024 18.2929 22.2929C17.9024 22.6834 17.9024 23.3166 18.2929 23.7071L21.2929 26.7071C21.4916 26.9058 21.7646 27.0117 22.0453 26.999C22.326 26.9862 22.5884 26.856 22.7682 26.6402L27.7682 20.6402Z" fill="#27AE60"/>
</svg>
